<svg width="25" height="24" viewBox="0 0 25 24" fill="none" xmlns="http://www.w3.org/2000/svg">
<g clip-path="url(#clip0_1_4611)">
<path d="M17.0001 8.19864V5.99964H8.00008C6.97897 5.99954 5.97473 6.26004 5.08243 6.75648C4.19012 7.25292 3.43928 7.96887 2.90097 8.83656C2.36267 9.70425 2.05471 10.695 2.00626 11.7149C1.9578 12.7349 2.17045 13.7503 2.62408 14.6651C2.66801 14.7534 2.69412 14.8494 2.70093 14.9478C2.70775 15.0461 2.69512 15.1448 2.66378 15.2383C2.63244 15.3318 2.583 15.4181 2.51828 15.4925C2.45356 15.5668 2.37483 15.6277 2.28658 15.6716C2.19833 15.7156 2.10229 15.7417 2.00395 15.7485C1.90561 15.7553 1.80689 15.7427 1.71343 15.7113C1.61997 15.68 1.53359 15.6306 1.45924 15.5658C1.38488 15.5011 1.32401 15.4224 1.28008 15.3341C0.712439 14.1905 0.446142 12.9209 0.506408 11.6456C0.566675 10.3703 0.951511 9.13147 1.62447 8.04648C2.29742 6.96149 3.23621 6.06626 4.35193 5.44557C5.46764 4.82489 6.72334 4.4993 8.00008 4.49964H17.0001V2.30064C17.0001 2.22939 17.0204 2.15961 17.0587 2.09949C17.0969 2.03937 17.1515 1.99139 17.216 1.96117C17.2806 1.93096 17.3524 1.91975 17.423 1.92886C17.4937 1.93798 17.5603 1.96704 17.6151 2.01264L21.1551 4.96164C21.3351 5.11164 21.3351 5.38764 21.1551 5.53764L17.6151 8.48664C17.5603 8.53224 17.4937 8.56131 17.423 8.57042C17.3524 8.57953 17.2806 8.56833 17.216 8.53811C17.1515 8.50789 17.0969 8.45991 17.0587 8.39979C17.0204 8.33967 17.0001 8.2699 17.0001 8.19864ZM22.7151 8.32764C22.8931 8.23922 23.099 8.2251 23.2874 8.28839C23.4759 8.35167 23.6315 8.48718 23.7201 8.66514C24.2877 9.80876 24.554 11.0783 24.4937 12.3537C24.4335 13.629 24.0486 14.8678 23.3757 15.9528C22.7027 17.0378 21.7639 17.933 20.6482 18.5537C19.5325 19.1744 18.2768 19.5 17.0001 19.4996H8.00008V21.6986C8.00005 21.7699 7.97972 21.8397 7.94148 21.8998C7.90323 21.9599 7.84864 22.0079 7.78411 22.0381C7.71958 22.0683 7.64778 22.0795 7.57711 22.0704C7.50644 22.0613 7.43983 22.0322 7.38508 21.9866L3.84508 19.0376C3.80288 19.0024 3.76892 18.9584 3.74562 18.9086C3.72232 18.8589 3.71025 18.8046 3.71025 18.7496C3.71025 18.6947 3.72232 18.6404 3.74562 18.5906C3.76892 18.5409 3.80288 18.4968 3.84508 18.4616L7.38508 15.5126C7.43983 15.467 7.50644 15.438 7.57711 15.4289C7.64778 15.4197 7.71958 15.431 7.78411 15.4612C7.84864 15.4914 7.90323 15.5394 7.94148 15.5995C7.97972 15.6596 8.00005 15.7294 8.00008 15.8006V17.9996H17.0001C18.0213 18 19.0257 17.7397 19.9182 17.2433C20.8108 16.747 21.5618 16.0311 22.1003 15.1634C22.6388 14.2956 22.9469 13.3048 22.9954 12.2847C23.0439 11.2647 22.8313 10.2491 22.3776 9.33414C22.2892 9.1561 22.275 8.95024 22.3383 8.76179C22.4016 8.57334 22.5371 8.41623 22.7151 8.32764Z" fill="#E1E1E1"/>
</g>
<defs>
<clipPath id="clip0_1_4611">
<rect width="24" height="24" fill="white" transform="translate(0.5)"/>
</clipPath>
</defs>
</svg>
