<svg width="24" height="24" viewBox="0 0 24 24" fill="none" xmlns="http://www.w3.org/2000/svg">
<g clip-path="url(#clip0_1_4518)">
<mask id="path-1-inside-1_1_4518" fill="white">
<path d="M16.5001 8.19901V6.00001H7.50008C6.47897 5.99991 5.47473 6.26041 4.58243 6.75685C3.69012 7.25329 2.93928 7.96924 2.40097 8.83693C1.86267 9.70462 1.55471 10.6953 1.50626 11.7153C1.4578 12.7352 1.67045 13.7507 2.12408 14.6655C2.16801 14.7538 2.19412 14.8498 2.20093 14.9481C2.20775 15.0465 2.19512 15.1452 2.16378 15.2387C2.13244 15.3321 2.083 15.4185 2.01828 15.4928C1.95356 15.5672 1.87483 15.6281 1.78658 15.672C1.69833 15.7159 1.60229 15.742 1.50395 15.7489C1.40561 15.7557 1.30689 15.743 1.21343 15.7117C1.11997 15.6804 1.03359 15.6309 0.95924 15.5662C0.884885 15.5015 0.824006 15.4228 0.780079 15.3345C0.212439 14.1909 -0.0538583 12.9213 0.00640834 11.646C0.066675 10.3707 0.451511 9.13184 1.12447 8.04685C1.79742 6.96186 2.73621 6.06663 3.85193 5.44594C4.96764 4.82525 6.22334 4.49966 7.50008 4.50001H16.5001V2.30101C16.5001 2.22975 16.5204 2.15998 16.5587 2.09986C16.5969 2.03974 16.6515 1.99176 16.716 1.96154C16.7806 1.93132 16.8524 1.92011 16.923 1.92923C16.9937 1.93834 17.0603 1.9674 17.1151 2.01301L20.6551 4.96201C20.8351 5.11201 20.8351 5.38801 20.6551 5.53801L17.1151 8.48701C17.0603 8.53261 16.9937 8.56167 16.923 8.57079C16.8524 8.5799 16.7806 8.56869 16.716 8.53847C16.6515 8.50825 16.5969 8.46028 16.5587 8.40016C16.5204 8.34004 16.5001 8.27026 16.5001 8.19901ZM22.2151 8.32801C22.3931 8.23959 22.599 8.22547 22.7874 8.28875C22.9759 8.35204 23.1315 8.48755 23.2201 8.66551C23.7877 9.80912 24.054 11.0787 23.9937 12.354C23.9335 13.6294 23.5486 14.8682 22.8757 15.9532C22.2027 17.0382 21.2639 17.9334 20.1482 18.5541C19.0325 19.1748 17.7768 19.5004 16.5001 19.5H7.50008V21.699C7.50005 21.7703 7.47972 21.84 7.44148 21.9002C7.40323 21.9603 7.34864 22.0083 7.28411 22.0385C7.21958 22.0687 7.14778 22.0799 7.07711 22.0708C7.00644 22.0617 6.93983 22.0326 6.88508 21.987L3.34508 19.038C3.30288 19.0028 3.26892 18.9588 3.24562 18.909C3.22232 18.8592 3.21025 18.805 3.21025 18.75C3.21025 18.6951 3.22232 18.6408 3.24562 18.591C3.26892 18.5412 3.30288 18.4972 3.34508 18.462L6.88508 15.513C6.93983 15.4674 7.00644 15.4383 7.07711 15.4292C7.14778 15.4201 7.21958 15.4313 7.28411 15.4615C7.34864 15.4918 7.40323 15.5397 7.44148 15.5999C7.47972 15.66 7.50005 15.7298 7.50008 15.801V18H16.5001C17.5213 18.0004 18.5257 17.74 19.4182 17.2437C20.3108 16.7474 21.0618 16.0315 21.6003 15.1637C22.1388 14.296 22.4469 13.3052 22.4954 12.2851C22.5439 11.265 22.3313 10.2494 21.8776 9.33451C21.7892 9.15646 21.775 8.9506 21.8383 8.76216C21.9016 8.57371 22.0371 8.41659 22.2151 8.32801Z"/>
</mask>
<path d="M16.5001 8.19901V6.00001H7.50008C6.47897 5.99991 5.47473 6.26041 4.58243 6.75685C3.69012 7.25329 2.93928 7.96924 2.40097 8.83693C1.86267 9.70462 1.55471 10.6953 1.50626 11.7153C1.4578 12.7352 1.67045 13.7507 2.12408 14.6655C2.16801 14.7538 2.19412 14.8498 2.20093 14.9481C2.20775 15.0465 2.19512 15.1452 2.16378 15.2387C2.13244 15.3321 2.083 15.4185 2.01828 15.4928C1.95356 15.5672 1.87483 15.6281 1.78658 15.672C1.69833 15.7159 1.60229 15.742 1.50395 15.7489C1.40561 15.7557 1.30689 15.743 1.21343 15.7117C1.11997 15.6804 1.03359 15.6309 0.95924 15.5662C0.884885 15.5015 0.824006 15.4228 0.780079 15.3345C0.212439 14.1909 -0.0538583 12.9213 0.00640834 11.646C0.066675 10.3707 0.451511 9.13184 1.12447 8.04685C1.79742 6.96186 2.73621 6.06663 3.85193 5.44594C4.96764 4.82525 6.22334 4.49966 7.50008 4.50001H16.5001V2.30101C16.5001 2.22975 16.5204 2.15998 16.5587 2.09986C16.5969 2.03974 16.6515 1.99176 16.716 1.96154C16.7806 1.93132 16.8524 1.92011 16.923 1.92923C16.9937 1.93834 17.0603 1.9674 17.1151 2.01301L20.6551 4.96201C20.8351 5.11201 20.8351 5.38801 20.6551 5.53801L17.1151 8.48701C17.0603 8.53261 16.9937 8.56167 16.923 8.57079C16.8524 8.5799 16.7806 8.56869 16.716 8.53847C16.6515 8.50825 16.5969 8.46028 16.5587 8.40016C16.5204 8.34004 16.5001 8.27026 16.5001 8.19901ZM22.2151 8.32801C22.3931 8.23959 22.599 8.22547 22.7874 8.28875C22.9759 8.35204 23.1315 8.48755 23.2201 8.66551C23.7877 9.80912 24.054 11.0787 23.9937 12.354C23.9335 13.6294 23.5486 14.8682 22.8757 15.9532C22.2027 17.0382 21.2639 17.9334 20.1482 18.5541C19.0325 19.1748 17.7768 19.5004 16.5001 19.5H7.50008V21.699C7.50005 21.7703 7.47972 21.84 7.44148 21.9002C7.40323 21.9603 7.34864 22.0083 7.28411 22.0385C7.21958 22.0687 7.14778 22.0799 7.07711 22.0708C7.00644 22.0617 6.93983 22.0326 6.88508 21.987L3.34508 19.038C3.30288 19.0028 3.26892 18.9588 3.24562 18.909C3.22232 18.8592 3.21025 18.805 3.21025 18.75C3.21025 18.6951 3.22232 18.6408 3.24562 18.591C3.26892 18.5412 3.30288 18.4972 3.34508 18.462L6.88508 15.513C6.93983 15.4674 7.00644 15.4383 7.07711 15.4292C7.14778 15.4201 7.21958 15.4313 7.28411 15.4615C7.34864 15.4918 7.40323 15.5397 7.44148 15.5999C7.47972 15.66 7.50005 15.7298 7.50008 15.801V18H16.5001C17.5213 18.0004 18.5257 17.74 19.4182 17.2437C20.3108 16.7474 21.0618 16.0315 21.6003 15.1637C22.1388 14.296 22.4469 13.3052 22.4954 12.2851C22.5439 11.265 22.3313 10.2494 21.8776 9.33451C21.7892 9.15646 21.775 8.9506 21.8383 8.76216C21.9016 8.57371 22.0371 8.41659 22.2151 8.32801Z" fill="#F5F5F5"/>
<path d="M16.5001 8.19901H15.0001L15.0001 8.19957L16.5001 8.19901ZM16.5001 6.00001H18.0001V4.50001H16.5001V6.00001ZM7.50008 6.00001L7.49993 7.50001H7.50008V6.00001ZM2.12408 14.6655L0.780223 15.3319L0.781242 15.3339L2.12408 14.6655ZM0.780079 15.3345L-0.563516 16.0014L-0.562759 16.0029L0.780079 15.3345ZM7.50008 4.50001L7.49967 6.00001H7.50008V4.50001ZM16.5001 4.50001V6.00001H18.0001V4.50001H16.5001ZM16.5001 2.30101L15.0001 2.30044V2.30101H16.5001ZM17.1151 2.01301L18.0752 0.860515L18.0751 0.860445L17.1151 2.01301ZM20.6551 4.96201L21.6154 3.80968L21.6152 3.80951L20.6551 4.96201ZM20.6551 5.53801L21.6152 6.6905L21.6154 6.69034L20.6551 5.53801ZM17.1151 8.48701L18.0751 9.63957L18.0752 9.6395L17.1151 8.48701ZM22.2151 8.32801L21.5479 6.98455L21.5466 6.98519L22.2151 8.32801ZM23.2201 8.66551L24.5637 7.99861L24.5629 7.99705L23.2201 8.66551ZM16.5001 19.5L16.5005 18H16.5001V19.5ZM7.50008 19.5V18H6.00008V19.5H7.50008ZM7.50008 21.699L9.00008 21.6996V21.699H7.50008ZM6.88508 21.987L5.92499 23.1395L5.92508 23.1396L6.88508 21.987ZM3.34508 19.038L2.3844 20.19L2.38499 20.1905L3.34508 19.038ZM3.34508 18.462L2.38499 17.3095L2.3844 17.31L3.34508 18.462ZM6.88508 15.513L5.92508 14.3604L5.92499 14.3605L6.88508 15.513ZM7.50008 15.801H9.00008V15.8004L7.50008 15.801ZM7.50008 18H6.00008V19.5H7.50008V18ZM16.5001 18L16.5006 16.5H16.5001V18ZM21.8776 9.33451L23.2214 8.66813L23.221 8.66733L21.8776 9.33451ZM18.0001 8.19901V6.00001H15.0001V8.19901H18.0001ZM16.5001 4.50001H7.50008V7.50001H16.5001V4.50001ZM7.50022 4.50001C6.22384 4.49988 4.96854 4.82551 3.85316 5.44606L5.3117 8.06764C5.98092 7.69531 6.7341 7.49993 7.49993 7.50001L7.50022 4.50001ZM3.85316 5.44606C2.73778 6.06661 1.79923 6.96155 1.12634 8.04616L3.6756 9.6277C4.07933 8.97693 4.64247 8.43997 5.3117 8.06764L3.85316 5.44606ZM1.12634 8.04616C0.453459 9.13077 0.0685131 10.3692 0.00794511 11.6441L3.00457 11.7865C3.04091 11.0215 3.27187 10.2785 3.6756 9.6277L1.12634 8.04616ZM0.00794511 11.6441C-0.0526229 12.9191 0.213192 14.1884 0.780225 15.3319L3.46793 13.9991C3.12771 13.313 2.96822 12.5514 3.00457 11.7865L0.00794511 11.6441ZM0.781242 15.3339C0.737391 15.2458 0.71132 15.15 0.70452 15.0518L3.69735 14.8445C3.67692 14.5496 3.59862 14.2617 3.46692 13.9971L0.781242 15.3339ZM0.70452 15.0518C0.697719 14.9536 0.710322 14.8551 0.741607 14.7618L3.58596 15.7155C3.67992 15.4353 3.71777 15.1393 3.69735 14.8445L0.70452 15.0518ZM0.741607 14.7618C0.772891 14.6685 0.822245 14.5822 0.886858 14.508L3.1497 16.4777C3.34376 16.2547 3.49199 15.9958 3.58596 15.7155L0.741607 14.7618ZM0.886858 14.508C0.951469 14.4338 1.03007 14.373 1.11816 14.3292L2.455 17.0148C2.71959 16.8831 2.95565 16.7006 3.1497 16.4777L0.886858 14.508ZM1.11816 14.3292C1.20626 14.2853 1.30213 14.2592 1.40029 14.2524L1.60761 17.2453C1.90246 17.2248 2.1904 17.1466 2.455 17.0148L1.11816 14.3292ZM1.40029 14.2524C1.49847 14.2456 1.59702 14.2582 1.69031 14.2895L0.736546 17.1339C1.01677 17.2278 1.31276 17.2657 1.60761 17.2453L1.40029 14.2524ZM1.69031 14.2895C1.78361 14.3208 1.86984 14.3702 1.94407 14.4348L-0.0255868 16.6976C0.197351 16.8917 0.456325 17.0399 0.736546 17.1339L1.69031 14.2895ZM1.94407 14.4348C2.01829 14.4994 2.07907 14.578 2.12292 14.6661L-0.562759 16.0029C-0.431054 16.2675 -0.248524 16.5036 -0.0255868 16.6976L1.94407 14.4348ZM2.12367 14.6676C1.66956 13.7527 1.45652 12.737 1.50474 11.7168L-1.49192 11.5752C-1.56424 13.1056 -1.24468 14.6291 -0.563515 16.0014L2.12367 14.6676ZM1.50474 11.7168C1.55295 10.6965 1.86082 9.70547 2.39918 8.83748L-0.150251 7.25622C-0.957797 8.55821 -1.4196 10.0448 -1.49192 11.5752L1.50474 11.7168ZM2.39918 8.83748C2.93755 7.96949 3.68858 7.2533 4.58115 6.75675L3.1227 4.13513C1.78385 4.87995 0.657295 5.95423 -0.150251 7.25622L2.39918 8.83748ZM4.58115 6.75675C5.47372 6.2602 6.47828 5.99973 7.49967 6.00001L7.50048 3.00001C5.96839 2.99959 4.46156 3.3903 3.1227 4.13513L4.58115 6.75675ZM7.50008 6.00001H16.5001V3.00001H7.50008V6.00001ZM18.0001 4.50001V2.30101H15.0001V4.50001H18.0001ZM18.0001 2.30157C18 2.51534 17.939 2.72466 17.8243 2.90501L15.2931 1.2947C15.1019 1.5953 15.0002 1.94416 15.0001 2.30044L18.0001 2.30157ZM17.8243 2.90501C17.7095 3.08537 17.5458 3.22931 17.3522 3.31997L16.0799 0.603114C15.7572 0.754212 15.4843 0.994108 15.2931 1.2947L17.8243 2.90501ZM17.3522 3.31997C17.1586 3.41063 16.9432 3.44425 16.7312 3.41691L17.1149 0.441551C16.7616 0.395977 16.4026 0.452018 16.0799 0.603114L17.3522 3.31997ZM16.7312 3.41691C16.5192 3.38956 16.3193 3.30238 16.1551 3.16557L18.0751 0.860445C17.8013 0.632431 17.4683 0.487126 17.1149 0.441551L16.7312 3.41691ZM16.155 3.1655L19.695 6.1145L21.6152 3.80951L18.0752 0.860515L16.155 3.1655ZM19.6948 6.11434C19.1552 5.66465 19.1552 4.83537 19.6948 4.38567L21.6154 6.69034C22.515 5.94065 22.515 4.55937 21.6154 3.80968L19.6948 6.11434ZM19.695 4.38551L16.155 7.33452L18.0752 9.6395L21.6152 6.6905L19.695 4.38551ZM16.1551 7.33444C16.3193 7.19764 16.5192 7.11045 16.7312 7.08311L17.1149 10.0585C17.4683 10.0129 17.8013 9.86759 18.0751 9.63957L16.1551 7.33444ZM16.7312 7.08311C16.9432 7.05577 17.1586 7.08939 17.3522 7.18005L16.0799 9.8969C16.4026 10.048 16.7616 10.104 17.1149 10.0585L16.7312 7.08311ZM17.3522 7.18005C17.5458 7.27071 17.7095 7.41464 17.8243 7.595L15.2931 9.20531C15.4843 9.50591 15.7572 9.7458 16.0799 9.8969L17.3522 7.18005ZM17.8243 7.595C17.939 7.77536 18 7.98467 18.0001 8.19845L15.0001 8.19957C15.0002 8.55585 15.1019 8.90472 15.2931 9.20531L17.8243 7.595ZM22.8823 9.67146C22.7042 9.75988 22.4984 9.774 22.3099 9.71072L23.265 6.86679C22.6996 6.67694 22.082 6.7193 21.5479 6.98455L22.8823 9.67146ZM22.3099 9.71072C22.1215 9.64743 21.9658 9.51192 21.8773 9.33396L24.5629 7.99705C24.2971 7.46318 23.8303 7.05665 23.265 6.86679L22.3099 9.71072ZM21.8765 9.33241C22.3306 10.2473 22.5436 11.263 22.4954 12.2832L25.4921 12.4248C25.5644 10.8945 25.2448 9.37095 24.5637 7.99861L21.8765 9.33241ZM22.4954 12.2832C22.4472 13.3035 22.1393 14.2945 21.601 15.1625L24.1504 16.7438C24.958 15.4418 25.4198 13.9552 25.4921 12.4248L22.4954 12.2832ZM21.601 15.1625C21.0626 16.0305 20.3116 16.7467 19.419 17.2433L20.8775 19.8649C22.2163 19.1201 23.3429 18.0458 24.1504 16.7438L21.601 15.1625ZM19.419 17.2433C18.5264 17.7398 17.5219 18.0003 16.5005 18L16.4997 21C18.0318 21.0004 19.5386 20.6097 20.8775 19.8649L19.419 17.2433ZM16.5001 18H7.50008V21H16.5001V18ZM6.00008 19.5V21.699H9.00008V19.5H6.00008ZM6.00008 21.6984C6.00016 21.4847 6.06114 21.2754 6.17588 21.095L8.70707 22.7053C8.89831 22.4047 8.99995 22.0558 9.00008 21.6996L6.00008 21.6984ZM6.17588 21.095C6.29063 20.9146 6.45438 20.7707 6.64797 20.68L7.92026 23.3969C8.2429 23.2458 8.51583 23.0059 8.70707 22.7053L6.17588 21.095ZM6.64797 20.68C6.84155 20.5894 7.05696 20.5558 7.26899 20.5831L6.88523 23.5585C7.2386 23.604 7.59762 23.548 7.92026 23.3969L6.64797 20.68ZM7.26899 20.5831C7.481 20.6105 7.68083 20.6976 7.84508 20.8344L5.92508 23.1396C6.19883 23.3676 6.53188 23.5129 6.88523 23.5585L7.26899 20.5831ZM7.84516 20.8345L4.30516 17.8855L2.38499 20.1905L5.92499 23.1395L7.84516 20.8345ZM4.30575 17.886C4.43236 17.9916 4.53422 18.1237 4.60412 18.273L1.88713 19.545C2.00363 19.7938 2.17339 20.014 2.3844 20.19L4.30575 17.886ZM4.60412 18.273C4.67402 18.4223 4.71025 18.5852 4.71025 18.75H1.71025C1.71025 19.0248 1.77063 19.2962 1.88713 19.545L4.60412 18.273ZM4.71025 18.75C4.71025 18.9149 4.67402 19.0777 4.60412 19.227L1.88713 17.955C1.77063 18.2038 1.71025 18.4752 1.71025 18.75H4.71025ZM4.60412 19.227C4.53422 19.3763 4.43236 19.5084 4.30575 19.614L2.3844 17.31C2.17339 17.486 2.00363 17.7062 1.88713 17.955L4.60412 19.227ZM4.30516 19.6145L7.84516 16.6655L5.92499 14.3605L2.38499 17.3095L4.30516 19.6145ZM7.84508 16.6656C7.68083 16.8024 7.481 16.8896 7.26899 16.9169L6.88523 13.9416C6.53188 13.9871 6.19883 14.1324 5.92508 14.3604L7.84508 16.6656ZM7.26899 16.9169C7.05696 16.9443 6.84155 16.9106 6.64797 16.82L7.92026 14.1031C7.59762 13.952 7.2386 13.896 6.88523 13.9416L7.26899 16.9169ZM6.64797 16.82C6.45438 16.7293 6.29063 16.5854 6.17588 16.405L8.70707 14.7947C8.51583 14.4941 8.2429 14.2542 7.92026 14.1031L6.64797 16.82ZM6.17588 16.405C6.06114 16.2247 6.00016 16.0153 6.00008 15.8016L9.00008 15.8004C8.99995 15.4442 8.89831 15.0953 8.70707 14.7947L6.17588 16.405ZM6.00008 15.801V18H9.00008V15.801H6.00008ZM7.50008 19.5H16.5001V16.5H7.50008V19.5ZM16.4996 19.5C17.7761 19.5005 19.0316 19.1751 20.1473 18.5546L18.6892 15.9328C18.0198 16.305 17.2665 16.5003 16.5006 16.5L16.4996 19.5ZM20.1473 18.5546C21.2629 17.9342 22.2017 17.0393 22.8748 15.9547L20.3258 14.3728C19.9219 15.0236 19.3586 15.5605 18.6892 15.9328L20.1473 18.5546ZM22.8748 15.9547C23.5479 14.87 23.933 13.6315 23.9937 12.3564L20.9971 12.2138C20.9607 12.9789 20.7296 13.722 20.3258 14.3728L22.8748 15.9547ZM23.9937 12.3564C24.0543 11.0813 23.7885 9.81179 23.2214 8.66813L20.5337 10.0009C20.874 10.6871 21.0335 11.4488 20.9971 12.2138L23.9937 12.3564ZM23.221 8.66733C23.3095 8.84537 23.3236 9.05123 23.2603 9.23968L20.4164 8.28463C20.2265 8.84998 20.2689 9.46756 20.5341 10.0017L23.221 8.66733ZM23.2603 9.23968C23.1987 9.42295 23.0664 9.57982 22.8835 9.67083L21.5466 6.98519C21.0079 7.25337 20.6045 7.72447 20.4164 8.28463L23.2603 9.23968Z" fill="#F1F1F1" mask="url(#path-1-inside-1_1_4518)"/>
</g>
<defs>
<clipPath id="clip0_1_4518">
<rect width="24" height="24" fill="white"/>
</clipPath>
</defs>
</svg>
