<svg width="24" height="24" viewBox="0 0 24 24" fill="none" xmlns="http://www.w3.org/2000/svg">
<g clip-path="url(#clip0_1_2118)">
<path d="M16.5001 8.19901V6.00001H7.50008C6.47897 5.99991 5.47473 6.26041 4.58243 6.75685C3.69012 7.25329 2.93928 7.96924 2.40097 8.83693C1.86267 9.70462 1.55471 10.6953 1.50626 11.7153C1.4578 12.7352 1.67045 13.7507 2.12408 14.6655C2.16801 14.7538 2.19412 14.8498 2.20093 14.9481C2.20775 15.0465 2.19512 15.1452 2.16378 15.2387C2.13244 15.3321 2.083 15.4185 2.01828 15.4928C1.95356 15.5672 1.87483 15.6281 1.78658 15.672C1.69833 15.7159 1.60229 15.742 1.50395 15.7489C1.40561 15.7557 1.30689 15.743 1.21343 15.7117C1.11997 15.6804 1.03359 15.6309 0.95924 15.5662C0.884885 15.5015 0.824006 15.4228 0.780079 15.3345C0.212439 14.1909 -0.0538583 12.9213 0.00640834 11.646C0.066675 10.3707 0.451511 9.13184 1.12447 8.04685C1.79742 6.96186 2.73621 6.06663 3.85193 5.44594C4.96764 4.82525 6.22334 4.49966 7.50008 4.50001H16.5001V2.30101C16.5001 2.22975 16.5204 2.15998 16.5587 2.09986C16.5969 2.03974 16.6515 1.99176 16.716 1.96154C16.7806 1.93132 16.8524 1.92011 16.923 1.92923C16.9937 1.93834 17.0603 1.9674 17.1151 2.01301L20.6551 4.96201C20.8351 5.11201 20.8351 5.38801 20.6551 5.53801L17.1151 8.48701C17.0603 8.53261 16.9937 8.56167 16.923 8.57079C16.8524 8.5799 16.7806 8.56869 16.716 8.53847C16.6515 8.50825 16.5969 8.46028 16.5587 8.40016C16.5204 8.34004 16.5001 8.27026 16.5001 8.19901ZM22.2151 8.32801C22.3931 8.23959 22.599 8.22547 22.7874 8.28875C22.9759 8.35204 23.1315 8.48755 23.2201 8.66551C23.7877 9.80912 24.054 11.0787 23.9937 12.354C23.9335 13.6294 23.5486 14.8682 22.8757 15.9532C22.2027 17.0382 21.2639 17.9334 20.1482 18.5541C19.0325 19.1748 17.7768 19.5004 16.5001 19.5H7.50008V21.699C7.50005 21.7703 7.47972 21.84 7.44148 21.9002C7.40323 21.9603 7.34864 22.0083 7.28411 22.0385C7.21958 22.0687 7.14778 22.0799 7.07711 22.0708C7.00644 22.0617 6.93983 22.0326 6.88508 21.987L3.34508 19.038C3.30288 19.0028 3.26892 18.9588 3.24562 18.909C3.22232 18.8592 3.21025 18.805 3.21025 18.75C3.21025 18.6951 3.22232 18.6408 3.24562 18.591C3.26892 18.5412 3.30288 18.4972 3.34508 18.462L6.88508 15.513C6.93983 15.4674 7.00644 15.4383 7.07711 15.4292C7.14778 15.4201 7.21958 15.4313 7.28411 15.4615C7.34864 15.4918 7.40323 15.5397 7.44148 15.5999C7.47972 15.66 7.50005 15.7298 7.50008 15.801V18H16.5001C17.5213 18.0004 18.5257 17.74 19.4182 17.2437C20.3108 16.7474 21.0618 16.0315 21.6003 15.1637C22.1388 14.296 22.4469 13.3052 22.4954 12.2851C22.5439 11.265 22.3313 10.2494 21.8776 9.33451C21.7892 9.15646 21.775 8.9506 21.8383 8.76216C21.9016 8.57371 22.0371 8.41659 22.2151 8.32801Z" fill="#F5F5F5"/>
</g>
<defs>
<clipPath id="clip0_1_2118">
<rect width="24" height="24" fill="white"/>
</clipPath>
</defs>
</svg>
