<svg width="24" height="25" viewBox="0 0 24 25" fill="none" xmlns="http://www.w3.org/2000/svg">
<path d="M21 10.9333H3M16 2.93335V6.93335M8 2.93335V6.93335M7.8 22.9333H16.2C17.8802 22.9333 18.7202 22.9333 19.362 22.6064C19.9265 22.3187 20.3854 21.8598 20.673 21.2953C21 20.6536 21 19.8135 21 18.1334V9.73335C21 8.05319 21 7.21311 20.673 6.57138C20.3854 6.00689 19.9265 5.54795 19.362 5.26033C18.7202 4.93335 17.8802 4.93335 16.2 4.93335H7.8C6.11984 4.93335 5.27976 4.93335 4.63803 5.26033C4.07354 5.54795 3.6146 6.00689 3.32698 6.57138C3 7.21311 3 8.05319 3 9.73335V18.1333C3 19.8135 3 20.6536 3.32698 21.2953C3.6146 21.8598 4.07354 22.3187 4.63803 22.6064C5.27976 22.9333 6.11984 22.9333 7.8 22.9333Z" stroke="#357937" stroke-width="1.5" stroke-linecap="round" stroke-linejoin="round"/>
</svg>
