<svg width="24" height="24" viewBox="0 0 24 24" fill="none" xmlns="http://www.w3.org/2000/svg">
<g clip-path="url(#clip0_1_4514)">
<path d="M21.4516 18.8022L21.4534 18.8038C21.489 18.835 21.5175 18.8735 21.537 18.9166L21.8406 18.7789L21.537 18.9166C21.5566 18.9597 21.5667 19.0064 21.5668 19.0538V19.96C21.5668 20.0484 21.5317 20.1332 21.4692 20.1957C21.4066 20.2582 21.3219 20.2934 21.2334 20.2934H2.70011C2.61171 20.2934 2.52692 20.2582 2.46441 20.1957C2.4019 20.1332 2.36678 20.0484 2.36678 19.96V19.0536C2.36687 19.0063 2.377 18.9596 2.39652 18.9166C2.41606 18.8735 2.44456 18.835 2.48011 18.8038L2.48014 18.8038L2.48412 18.8002C3.13958 18.2054 3.7126 17.5257 4.18796 16.779L4.19636 16.7658L4.20349 16.7519C4.73479 15.7142 5.05294 14.5806 5.1392 13.418L5.14011 13.4057V13.3934L5.14011 10.1L5.14011 10.0993C5.13676 8.43706 5.73594 6.82987 6.82667 5.57547C7.91741 4.32107 9.42578 3.50446 11.0724 3.27688L11.3601 3.23711V2.94668V2.07335C11.3601 1.92571 11.4188 1.78412 11.5232 1.67973C11.6276 1.57533 11.7691 1.51668 11.9168 1.51668C12.0644 1.51668 12.206 1.57533 12.3104 1.67973C12.4148 1.78412 12.4734 1.92571 12.4734 2.07335V2.93335V3.22681L12.7645 3.264C14.4261 3.47627 15.9529 4.28798 17.0581 5.54661C18.1634 6.80524 18.771 8.42415 18.7668 10.0992V10.1V13.3934V13.4057L18.7677 13.418C18.854 14.5806 19.1721 15.7142 19.7034 16.7519L19.7111 16.7669L19.7202 16.781C20.2041 17.5293 20.7864 18.2092 21.4516 18.8022ZM3.18847 19.0537L2.59555 19.6267H3.42011H20.5201H21.3447L20.7518 19.0537C20.1537 18.4756 19.6266 17.8284 19.1818 17.1256C18.5656 15.9684 18.2058 14.6921 18.1268 13.3834V10.1056C18.1539 9.28149 18.0153 8.46032 17.7192 7.69075C17.4224 6.91941 16.9734 6.21568 16.3989 5.62147C15.8245 5.02726 15.1364 4.55472 14.3755 4.232C13.6146 3.90927 12.7966 3.74295 11.9701 3.74295C11.1436 3.74295 10.3256 3.90927 9.56474 4.232C8.80387 4.55472 8.11573 5.02726 7.54129 5.62147C6.96685 6.21568 6.51786 6.91941 6.22105 7.69075C5.92492 8.46032 5.78633 9.28149 5.81345 10.1056V13.3834C5.73445 14.6921 5.37463 15.9684 4.75845 17.1256C4.3136 17.8284 3.78655 18.4756 3.18847 19.0537Z" fill="#F5F5F5" stroke="#F1F1F1" stroke-width="0.666667"/>
<path d="M12.917 22.1578C12.6616 22.3836 12.3346 22.5118 11.9938 22.52C11.6436 22.5248 11.3037 22.4023 11.0369 22.1754C10.8721 22.0352 10.7422 21.861 10.6548 21.6666H13.2787C13.195 21.8528 13.0723 22.0206 12.917 22.1578Z" fill="#F5F5F5" stroke="#F1F1F1" stroke-width="0.666667"/>
</g>
<defs>
<clipPath id="clip0_1_4514">
<rect width="24" height="24" fill="white"/>
</clipPath>
</defs>
</svg>
