<svg width="24" height="25" viewBox="0 0 24 25" fill="none" xmlns="http://www.w3.org/2000/svg">
<g clip-path="url(#clip0_1_2079)">
<path d="M23.25 6.93335C23.25 6.63335 23.1 6.40835 22.875 6.25835L17.625 3.25835C17.475 3.18335 17.4 3.18335 17.25 3.18335C17.1 3.18335 17.025 3.18335 16.875 3.25835L12 6.03335L7.125 3.25835C6.975 3.18335 6.9 3.18335 6.75 3.18335C6.6 3.18335 6.525 3.18335 6.375 3.25835L1.125 6.25835C0.9 6.40835 0.75 6.63335 0.75 6.93335V21.9333C0.75 22.3834 1.05 22.6833 1.5 22.6833C1.65 22.6833 1.725 22.6083 1.875 22.6083L6.75 19.8334L11.625 22.6083C11.775 22.6833 11.85 22.6833 12 22.6833C12.15 22.6833 12.225 22.6833 12.375 22.6083L17.25 19.8334L22.125 22.6083C22.2 22.6833 22.35 22.6833 22.5 22.6833C22.95 22.6833 23.25 22.3834 23.25 21.9333V6.93335ZM2.25 7.38335L6 5.20835V18.4833L2.25 20.6583V7.38335ZM11.25 20.6583L7.5 18.4833V5.20835L11.25 7.38335V20.6583ZM16.5 18.4833L12.75 20.6583V7.38335L16.5 5.20835V18.4833ZM18 18.4833V5.20835L21.75 7.38335V20.6583L18 18.4833Z" fill="white"/>
</g>
<defs>
<clipPath id="clip0_1_2079">
<rect width="24" height="24" fill="white" transform="translate(0 0.93335)"/>
</clipPath>
</defs>
</svg>
