<svg width="24" height="25" viewBox="0 0 24 25" fill="none" xmlns="http://www.w3.org/2000/svg">
<g clip-path="url(#clip0_1_2074)">
<path d="M22.4225 10.0513C22.3287 9.76309 22.1517 9.50903 21.9138 9.32118C21.6759 9.13333 21.3877 9.02008 21.0856 8.99572L15.5543 8.54947L13.4187 3.38478C13.3032 3.10336 13.1066 2.86264 12.854 2.69322C12.6013 2.52381 12.304 2.43335 11.9998 2.43335C11.6956 2.43335 11.3983 2.52381 11.1456 2.69322C10.893 2.86264 10.6964 3.10336 10.5809 3.38478L8.44714 8.54853L2.91308 8.99572C2.61043 9.02132 2.32207 9.13566 2.08412 9.32441C1.84617 9.51317 1.66921 9.76795 1.57542 10.0568C1.48163 10.3457 1.47517 10.6559 1.55686 10.9484C1.63855 11.2409 1.80475 11.5028 2.03464 11.7013L6.25339 15.3417L4.96808 20.7848C4.8962 21.0805 4.9138 21.3909 5.01865 21.6766C5.1235 21.9623 5.31087 22.2104 5.55698 22.3894C5.80309 22.5684 6.09684 22.6702 6.40093 22.682C6.70503 22.6937 7.00576 22.6149 7.26496 22.4554L11.9993 19.5417L16.7365 22.4554C16.9958 22.613 17.2959 22.6903 17.5991 22.6777C17.9022 22.6651 18.1949 22.563 18.4401 22.3844C18.6854 22.2058 18.8724 21.9586 18.9774 21.6739C19.0825 21.3893 19.101 21.0799 19.0306 20.7848L17.7406 15.3407L21.9593 11.7004C22.1911 11.5022 22.3588 11.2398 22.4412 10.9462C22.5237 10.6526 22.5172 10.3412 22.4225 10.0513ZM20.9843 10.5642L16.4187 14.5017C16.3146 14.5914 16.2371 14.708 16.1948 14.8388C16.1525 14.9696 16.1469 15.1095 16.1787 15.2432L17.5737 21.1307C17.5773 21.1388 17.5777 21.148 17.5747 21.1564C17.5717 21.1648 17.5657 21.1717 17.5578 21.1757C17.5409 21.1888 17.5362 21.186 17.5221 21.1757L12.3921 18.021C12.274 17.9484 12.138 17.9099 11.9993 17.9099C11.8606 17.9099 11.7247 17.9484 11.6065 18.021L6.47652 21.1776C6.46246 21.186 6.45871 21.1888 6.44089 21.1776C6.43298 21.1736 6.42692 21.1666 6.42395 21.1583C6.42099 21.1499 6.42135 21.1407 6.42496 21.1326L7.81996 15.2451C7.85175 15.1114 7.84618 14.9715 7.80385 14.8407C7.76153 14.7099 7.68407 14.5933 7.57996 14.5035L3.01433 10.566C3.00308 10.5567 2.99277 10.5482 3.00214 10.5192C3.01152 10.4901 3.01902 10.4938 3.03308 10.492L9.02558 10.0082C9.16303 9.99643 9.29456 9.94696 9.40571 9.86525C9.51686 9.78354 9.60332 9.67276 9.65558 9.54509L11.9637 3.95666C11.9712 3.94072 11.974 3.93322 11.9965 3.93322C12.019 3.93322 12.0218 3.94072 12.0293 3.95666L14.3431 9.54509C14.3958 9.67281 14.4828 9.78347 14.5945 9.86487C14.7062 9.94626 14.8382 9.99522 14.9759 10.0063L20.9684 10.4901C20.9825 10.4901 20.9909 10.4901 20.9993 10.5173C21.0078 10.5445 20.9993 10.5548 20.9843 10.5642Z" fill="white"/>
</g>
<defs>
<clipPath id="clip0_1_2074">
<rect width="24" height="24" fill="white" transform="translate(0 0.93335)"/>
</clipPath>
</defs>
</svg>
