<svg width="24" height="25" viewBox="0 0 24 25" fill="none" xmlns="http://www.w3.org/2000/svg">
<g clip-path="url(#clip0_1_2084)">
<path d="M14.8488 16.5929C17.2578 16.5929 19.2174 14.6333 19.2174 12.2255C19.2174 9.81531 17.2572 7.85571 14.8488 7.85571C12.4398 7.85571 10.4796 9.81591 10.4796 12.2255C10.4796 14.6333 12.4398 16.5929 14.8488 16.5929ZM14.8488 8.57451C15.8164 8.57594 16.7439 8.96106 17.4278 9.64538C18.1118 10.3297 18.4965 11.2574 18.4974 12.2249C18.4963 13.1922 18.1115 14.1195 17.4275 14.8034C16.7435 15.4873 15.8161 15.872 14.8488 15.8729C13.8815 15.872 12.9541 15.4874 12.2699 14.8035C11.5858 14.1196 11.2009 13.1922 11.1996 12.2249C11.2002 10.2125 12.837 8.57451 14.8488 8.57451ZM22.827 20.7281C22.6356 17.3177 19.5372 17.1089 19.4862 17.1071L10.191 17.1077C10.1598 17.1089 7.06083 17.3183 6.87003 20.7479V23.3327C6.87003 23.4282 6.90796 23.5198 6.97547 23.5873C7.04299 23.6548 7.13455 23.6927 7.23003 23.6927H22.467C22.5625 23.6927 22.6541 23.6548 22.7216 23.5873C22.7891 23.5198 22.827 23.4282 22.827 23.3327V20.7281ZM22.1076 22.9727H7.59063L7.59003 20.7677C7.74363 18.0107 10.1304 17.8319 10.2108 17.8265L19.4652 17.8259C19.5666 17.8325 21.9528 18.0113 22.107 20.7479L22.1076 22.9727ZM7.57083 12.2987H7.57323C8.31303 12.2933 8.95383 12.0281 9.47763 11.5091C10.002 10.9853 10.2672 10.3445 10.2672 9.60351C10.2672 8.85891 10.0014 8.21691 9.47763 7.69731C8.95323 7.17351 8.31243 6.90771 7.57203 6.90771C6.82743 6.90771 6.18543 7.17351 5.66703 7.69671C5.14263 8.21691 4.87683 8.85891 4.87683 9.60351C4.87683 10.3439 5.14263 10.9853 5.66643 11.5085C6.18603 12.0281 6.82623 12.2939 7.57083 12.2987ZM5.98623 8.01531C6.42423 7.57311 6.94383 7.35771 7.57263 7.35771C8.19783 7.35771 8.71743 7.57311 9.16083 8.01711C9.60303 8.45511 9.81843 8.97471 9.81843 9.60411C9.81843 10.2299 9.60303 10.7489 9.16083 11.1905C8.71863 11.6291 8.19843 11.8451 7.57263 11.8499C6.94263 11.8451 6.42303 11.6303 5.98503 11.1911C5.54223 10.7495 5.32683 10.2299 5.32683 9.60411C5.32683 8.97411 5.54223 8.45511 5.98623 8.01531Z" fill="white"/>
<path d="M7.22311 10.6233C7.26375 10.659 7.31602 10.6786 7.37011 10.6785C7.40229 10.6784 7.43408 10.6715 7.46336 10.6581C7.49264 10.6448 7.51874 10.6253 7.53991 10.6011L9.06331 8.8551C9.10246 8.81015 9.12214 8.75148 9.11803 8.69202C9.11393 8.63255 9.08636 8.57715 9.04141 8.538C8.99646 8.49886 8.93779 8.47917 8.87832 8.48328C8.81886 8.48738 8.76346 8.51495 8.72431 8.5599L7.34851 10.1367L6.67171 9.5517C6.64941 9.5324 6.62353 9.51767 6.59554 9.50837C6.56755 9.49907 6.538 9.49537 6.50859 9.49749C6.47917 9.49961 6.45046 9.5075 6.42409 9.52071C6.39772 9.53393 6.37421 9.5522 6.35491 9.5745C6.3356 9.5968 6.32088 9.62268 6.31158 9.65067C6.30228 9.67866 6.29858 9.70821 6.3007 9.73762C6.30282 9.76704 6.31071 9.79575 6.32392 9.82212C6.33713 9.84849 6.35541 9.872 6.37771 9.8913L7.22311 10.6233ZM12.0777 6.8133C12.0777 6.8133 12.1821 6.6633 12.4485 6.5733C12.6543 6.5037 12.7857 6.4827 12.7857 6.4827V4.7313C12.7857 4.2705 12.4449 3.8709 11.9253 3.8709H10.6089V4.5789H12.0777V6.8133ZM5.39551 5.6091H9.74011C9.96211 5.6091 10.1703 5.4531 10.1703 5.1705V4.1433C10.1703 3.7521 9.85891 3.4323 9.46831 3.4323H9.30151C9.10831 2.6823 8.37511 2.1333 7.56331 2.1333C6.75151 2.1333 6.01831 2.6823 5.82571 3.4323H5.66731C5.27671 3.4323 4.95691 3.7521 4.95691 4.1433V5.1705C4.95691 5.4249 5.14231 5.6091 5.39551 5.6091ZM7.56331 3.0021C8.04451 3.0021 8.43211 3.3897 8.43211 3.8709C8.43211 4.3521 8.04451 4.7397 7.56331 4.7397C7.44915 4.73994 7.33607 4.71763 7.23055 4.67405C7.12504 4.63047 7.02917 4.56649 6.94845 4.48576C6.86772 4.40504 6.80374 4.30917 6.76016 4.20366C6.71658 4.09814 6.69427 3.98506 6.69451 3.8709C6.69451 3.3897 7.08211 3.0021 7.56331 3.0021Z" fill="white"/>
<path d="M9.57125 14.4678H3.05765V4.57861H4.52645V3.87061H3.21065C2.74985 3.87061 2.35925 4.26961 2.35925 4.73101V14.3238C2.35925 14.7846 2.74985 15.1662 3.21065 15.1662H10.2475C10.2475 15.1668 9.71465 14.946 9.57125 14.4678Z" fill="white"/>
</g>
<defs>
<clipPath id="clip0_1_2084">
<rect width="24" height="24" fill="white" transform="translate(0 0.93335)"/>
</clipPath>
</defs>
</svg>
