<svg width="14" height="13" viewBox="0 0 14 13" fill="none" xmlns="http://www.w3.org/2000/svg">
<path d="M3.29765 10.2457H4.05315L9.23558 5.06326L8.48009 4.30777L3.29765 9.4902V10.2457ZM2.2373 11.306V9.05281L9.23558 2.06779C9.34161 1.97059 9.45869 1.89548 9.58682 1.84247C9.71494 1.78945 9.8497 1.76294 9.99108 1.76294C10.1325 1.76294 10.2694 1.78945 10.402 1.84247C10.5345 1.89548 10.6494 1.97501 10.7466 2.08104L11.4756 2.82328C11.5816 2.92048 11.6589 3.03535 11.7075 3.1679C11.7561 3.30044 11.7804 3.43298 11.7804 3.56553C11.7804 3.70691 11.7561 3.84166 11.7075 3.96978C11.6589 4.09791 11.5816 4.21499 11.4756 4.32102L4.49054 11.306H2.2373ZM8.85121 4.69214L8.48009 4.30777L9.23558 5.06326L8.85121 4.69214Z" fill="#C6C6C6"/>
</svg>
