<svg width="24" height="25" viewBox="0 0 24 25" fill="none" xmlns="http://www.w3.org/2000/svg">
<g clip-path="url(#clip0_1_2063)">
<path d="M7.99797 16.9333H11.998M7.99797 11.9333H15.998M7.49997 4.43335C5.94397 4.48035 5.01697 4.65335 4.37497 5.29535C3.49597 6.17535 3.49597 7.59035 3.49597 10.4213V16.9274C3.49597 19.7594 3.49597 21.1743 4.37497 22.0543C5.25297 22.9333 6.66797 22.9333 9.49597 22.9333H14.496C17.325 22.9333 18.739 22.9334 19.617 22.0534C20.497 21.1744 20.497 19.7594 20.497 16.9274V10.4213C20.497 7.59135 20.497 6.17535 19.617 5.29535C18.976 4.65335 18.048 4.48035 16.492 4.43335" stroke="white" stroke-width="1.5" stroke-linecap="round" stroke-linejoin="round"/>
<path d="M7.49597 4.68335C7.49597 3.71735 8.27997 2.93335 9.24597 2.93335H14.746C15.2101 2.93335 15.6552 3.11772 15.9834 3.44591C16.3116 3.7741 16.496 4.21922 16.496 4.68335C16.496 5.14748 16.3116 5.5926 15.9834 5.92079C15.6552 6.24898 15.2101 6.43335 14.746 6.43335H9.24597C8.78184 6.43335 8.33672 6.24898 8.00853 5.92079C7.68035 5.5926 7.49597 5.14748 7.49597 4.68335Z" stroke="white" stroke-width="1.5" stroke-linecap="round" stroke-linejoin="round"/>
</g>
<defs>
<clipPath id="clip0_1_2063">
<rect width="24" height="24" fill="white" transform="translate(0 0.93335)"/>
</clipPath>
</defs>
</svg>
