<svg width="24" height="25" viewBox="0 0 24 25" fill="none" xmlns="http://www.w3.org/2000/svg">
<path d="M22.4232 9.61812C22.3294 9.32986 22.1524 9.0758 21.9145 8.88795C21.6766 8.7001 21.3885 8.58686 21.0863 8.56249L15.5551 8.11624L13.4194 2.95155C13.3039 2.67013 13.1074 2.42941 12.8547 2.26C12.6021 2.09058 12.3047 2.00012 12.0005 2.00012C11.6963 2.00012 11.399 2.09058 11.1463 2.26C10.8937 2.42941 10.6971 2.67013 10.5816 2.95155L8.44788 8.11531L2.91381 8.56249C2.61117 8.58809 2.3228 8.70243 2.08485 8.89119C1.8469 9.07994 1.66994 9.33472 1.57615 9.62361C1.48236 9.91249 1.4759 10.2226 1.55759 10.5152C1.63928 10.8077 1.80548 11.0696 2.03538 11.2681L6.25413 14.9084L4.96881 20.3516C4.89693 20.6473 4.91453 20.9577 5.01938 21.2434C5.12423 21.5291 5.3116 21.7771 5.55771 21.9562C5.80382 22.1352 6.09757 22.237 6.40167 22.2488C6.70576 22.2605 7.00649 22.1817 7.26569 22.0222L12.0001 19.1084L16.7373 22.0222C16.9965 22.1798 17.2967 22.2571 17.5998 22.2445C17.903 22.2318 18.1956 22.1298 18.4409 21.9512C18.6861 21.7726 18.8731 21.5254 18.9782 21.2407C19.0832 20.9561 19.1017 20.6467 19.0313 20.3516L17.7413 14.9075L21.9601 11.2672C22.1918 11.069 22.3595 10.8065 22.442 10.513C22.5244 10.2194 22.5179 9.90796 22.4232 9.61812ZM20.9851 10.1309L16.4194 14.0684C16.3153 14.1582 16.2379 14.2748 16.1955 14.4056C16.1532 14.5364 16.1476 14.6763 16.1794 14.81L17.5744 20.6975C17.578 20.7056 17.5784 20.7148 17.5754 20.7232C17.5725 20.7315 17.5664 20.7385 17.5585 20.7425C17.5416 20.7556 17.5369 20.7528 17.5229 20.7425L12.3929 17.5878C12.2747 17.5152 12.1388 17.4767 12.0001 17.4767C11.8614 17.4767 11.7254 17.5152 11.6073 17.5878L6.47725 20.7444C6.46319 20.7528 6.45944 20.7556 6.44163 20.7444C6.43371 20.7403 6.42765 20.7334 6.42468 20.725C6.42172 20.7167 6.42208 20.7075 6.42569 20.6994L7.82069 14.8119C7.85248 14.6781 7.84691 14.5382 7.80458 14.4075C7.76226 14.2767 7.68481 14.16 7.58069 14.0703L3.01506 10.1328C3.00381 10.1234 2.9935 10.115 3.00288 10.0859C3.01225 10.0569 3.01975 10.0606 3.03381 10.0587L9.02631 9.57499C9.16376 9.5632 9.29529 9.51373 9.40644 9.43203C9.51759 9.35032 9.60405 9.23954 9.65631 9.11187L11.9644 3.52343C11.9719 3.50749 11.9748 3.49999 11.9973 3.49999C12.0198 3.49999 12.0226 3.50749 12.0301 3.52343L14.3438 9.11187C14.3966 9.23958 14.4836 9.35025 14.5952 9.43164C14.7069 9.51303 14.8389 9.56199 14.9766 9.57312L20.9691 10.0569C20.9832 10.0569 20.9916 10.0569 21.0001 10.0841C21.0085 10.1112 21.0001 10.1216 20.9851 10.1309Z" fill="white"/>
</svg>
