<svg width="24" height="24" viewBox="0 0 24 24" fill="none" xmlns="http://www.w3.org/2000/svg">
<path d="M22.4232 9.11812C22.3294 8.82986 22.1524 8.5758 21.9145 8.38795C21.6766 8.2001 21.3885 8.08686 21.0863 8.06249L15.5551 7.61624L13.4194 2.45155C13.3039 2.17013 13.1074 1.92941 12.8547 1.76C12.6021 1.59058 12.3047 1.50012 12.0005 1.50012C11.6963 1.50012 11.399 1.59058 11.1463 1.76C10.8937 1.92941 10.6971 2.17013 10.5816 2.45155L8.44788 7.6153L2.91381 8.06249C2.61117 8.08809 2.3228 8.20243 2.08485 8.39118C1.8469 8.57994 1.66994 8.83472 1.57615 9.12361C1.48236 9.41249 1.4759 9.72263 1.55759 10.0152C1.63928 10.3077 1.80548 10.5696 2.03538 10.7681L6.25413 14.4084L4.96881 19.8516C4.89693 20.1473 4.91453 20.4577 5.01938 20.7434C5.12423 21.0291 5.3116 21.2771 5.55771 21.4562C5.80382 21.6352 6.09757 21.737 6.40167 21.7488C6.70576 21.7605 7.0065 21.6817 7.26569 21.5222L12.0001 18.6084L16.7373 21.5222C16.9965 21.6798 17.2967 21.7571 17.5998 21.7445C17.903 21.7318 18.1956 21.6298 18.4409 21.4512C18.6861 21.2725 18.8731 21.0254 18.9782 20.7407C19.0832 20.4561 19.1017 20.1467 19.0313 19.8516L17.7413 14.4075L21.9601 10.7672C22.1918 10.569 22.3595 10.3065 22.442 10.013C22.5244 9.71939 22.5179 9.40796 22.4232 9.11812Z" fill="white"/>
</svg>
