<svg width="24" height="25" viewBox="0 0 24 25" fill="none" xmlns="http://www.w3.org/2000/svg">
<path d="M22.4232 9.61812C22.3294 9.32986 22.1524 9.0758 21.9145 8.88795C21.6766 8.7001 21.3885 8.58686 21.0863 8.56249L15.5551 8.11624L13.4194 2.95155C13.3039 2.67013 13.1074 2.42941 12.8547 2.26C12.6021 2.09058 12.3047 2.00012 12.0005 2.00012C11.6963 2.00012 11.399 2.09058 11.1463 2.26C10.8937 2.42941 10.6971 2.67013 10.5816 2.95155L8.44788 8.1153L2.91381 8.56249C2.61117 8.58809 2.3228 8.70243 2.08485 8.89118C1.8469 9.07994 1.66994 9.33472 1.57615 9.62361C1.48236 9.91249 1.4759 10.2226 1.55759 10.5152C1.63928 10.8077 1.80548 11.0696 2.03538 11.2681L6.25413 14.9084L4.96881 20.3516C4.89693 20.6473 4.91453 20.9577 5.01938 21.2434C5.12423 21.5291 5.3116 21.7771 5.55771 21.9562C5.80382 22.1352 6.09757 22.237 6.40167 22.2488C6.70576 22.2605 7.0065 22.1817 7.26569 22.0222L12.0001 19.1084L16.7373 22.0222C16.9965 22.1798 17.2967 22.2571 17.5998 22.2445C17.903 22.2318 18.1956 22.1298 18.4409 21.9512C18.6861 21.7725 18.8731 21.5254 18.9782 21.2407C19.0832 20.9561 19.1017 20.6467 19.0313 20.3516L17.7413 14.9075L21.9601 11.2672C22.1918 11.069 22.3595 10.8065 22.442 10.513C22.5244 10.2194 22.5179 9.90796 22.4232 9.61812Z" fill="white"/>
</svg>
