<svg width="24" height="24" viewBox="0 0 24 24" fill="none" xmlns="http://www.w3.org/2000/svg">
<path d="M22.4225 9.118C22.3287 8.82974 22.1517 8.57568 21.9138 8.38783C21.6759 8.19998 21.3877 8.08673 21.0856 8.06237L15.5543 7.61612L13.4187 2.45143C13.3032 2.17001 13.1066 1.92929 12.854 1.75987C12.6013 1.59046 12.304 1.5 11.9998 1.5C11.6956 1.5 11.3983 1.59046 11.1456 1.75987C10.893 1.92929 10.6964 2.17001 10.5809 2.45143L8.44714 7.61518L2.91308 8.06237C2.61043 8.08797 2.32207 8.20231 2.08412 8.39106C1.84617 8.57982 1.66921 8.8346 1.57542 9.12348C1.48163 9.41237 1.47517 9.72251 1.55686 10.015C1.63855 10.3076 1.80475 10.5695 2.03464 10.768L6.25339 14.4083L4.96808 19.8514C4.8962 20.1471 4.9138 20.4576 5.01865 20.7432C5.1235 21.0289 5.31087 21.277 5.55698 21.456C5.80309 21.635 6.09684 21.7369 6.40093 21.7486C6.70503 21.7604 7.00576 21.6815 7.26496 21.5221L11.9993 18.6083L16.7365 21.5221C16.9958 21.6796 17.2959 21.757 17.5991 21.7444C17.9022 21.7317 18.1949 21.6297 18.4401 21.451C18.6854 21.2724 18.8724 21.0252 18.9774 20.7406C19.0825 20.4559 19.101 20.1466 19.0306 19.8514L17.7406 14.4074L21.9593 10.7671C22.1911 10.5689 22.3588 10.3064 22.4412 10.0128C22.5237 9.71927 22.5172 9.40784 22.4225 9.118ZM20.9843 9.63081L16.4187 13.5683C16.3146 13.6581 16.2371 13.7747 16.1948 13.9055C16.1525 14.0362 16.1469 14.1761 16.1787 14.3099L17.5737 20.1974C17.5773 20.2055 17.5777 20.2147 17.5747 20.223C17.5717 20.2314 17.5657 20.2383 17.5578 20.2424C17.5409 20.2555 17.5362 20.2527 17.5221 20.2424L12.3921 17.0877C12.274 17.015 12.138 16.9766 11.9993 16.9766C11.8606 16.9766 11.7247 17.015 11.6065 17.0877L6.47652 20.2442C6.46246 20.2527 6.45871 20.2555 6.44089 20.2442C6.43298 20.2402 6.42692 20.2333 6.42395 20.2249C6.42099 20.2166 6.42135 20.2074 6.42496 20.1992L7.81996 14.3117C7.85175 14.178 7.84618 14.0381 7.80385 13.9073C7.76153 13.7766 7.68407 13.6599 7.57996 13.5702L3.01433 9.63268C3.00308 9.62331 2.99277 9.61487 3.00214 9.58581C3.01152 9.55675 3.01902 9.5605 3.03308 9.55862L9.02558 9.07487C9.16303 9.06308 9.29456 9.01361 9.40571 8.9319C9.51686 8.85019 9.60332 8.73941 9.65558 8.61175L11.9637 3.02331C11.9712 3.00737 11.974 2.99987 11.9965 2.99987C12.019 2.99987 12.0218 3.00737 12.0293 3.02331L14.3431 8.61175C14.3958 8.73946 14.4828 8.85012 14.5945 8.93152C14.7062 9.01291 14.8382 9.06187 14.9759 9.073L20.9684 9.55675C20.9825 9.55675 20.9909 9.55675 20.9993 9.58393C21.0078 9.61112 20.9993 9.62143 20.9843 9.63081Z" fill="white"/>
</svg>
